<svg xmlns="http://www.w3.org/2000/svg" version="1.1" xmlns:xlink="http://www.w3.org/1999/xlink" width="512" height="512" x="0" y="0" viewBox="0 0 512 512" style="enable-background:new 0 0 512 512" xml:space="preserve" class=""><g><path fill="#f15642" d="M440.1 141.4v308.9c0 34.1-27.6 61.7-61.7 61.7H133.6c-34.1 0-61.7-27.6-61.7-61.7V61.7C71.9 27.6 99.5 0 133.6 0h165.1z" opacity="1" data-original="#f15642" class=""></path><path fill="#ff9587" d="M440.1 141.4H324.2c-14.1 0-25.5-11.4-25.5-25.5V0z" opacity="1" data-original="#ff9587"></path><g fill="#fff"><path d="M210 276c0 21.3-11.3 33.1-31.2 33.1h-12.2v35.7H152V243.3h26.8c19.8 0 31.2 12 31.2 32.7zm-15 0c0-12.5-5.4-18.9-16.4-18.9h-12v38h12c11.1.1 16.4-6 16.4-19.1zM282.6 243.3v101.5H268L245.3 295c-3-7.5-7.2-18.1-9.7-24.6l-.4.3c1 10.1 1.7 25.4 1.7 35v39.1h-14.5V243.3H237l23.3 51.7c3 6.8 6.8 16.2 9.3 22.3l.4-.3c-1.2-10-2-25.2-2-34.2v-39.6h14.6zM300 314.6v-41.3c0-20.6 11.3-31.6 29.7-31.6 18 0 28.9 10.9 29.6 30.9h-14.5c-.6-11.8-5.8-16.8-15.1-16.8s-14.8 5.4-14.8 17.7v41.2c0 12.3 5.8 17.7 15.2 17.7 9.7 0 15.5-5.4 15.5-17v-12.7h-16.1v-13H360v25.8c-.3 19.9-11.8 31-30 31s-30-11.3-30-31.9z" fill="#ffffff" opacity="1" data-original="#ffffff"></path></g></g></svg>